<svg id="SVGDoc" width="61" height="61" xmlns="http://www.w3.org/2000/svg" version="1.1" xmlns:xlink="http://www.w3.org/1999/xlink" xmlns:avocode="https://avocode.com/" viewBox="0 0 61 61"><defs><path d="M943.22939,1619.57782c-15.96899,0 -28.91436,-12.94562 -28.91436,-28.91469c0,-15.96907 12.94537,-28.91469 28.91436,-28.91469c15.96889,0 28.91426,12.94562 28.91426,28.91469c0,15.96907 -12.94537,28.91469 -28.91426,28.91469zM943.22939,1565.36327c-13.97295,0 -25.30012,11.32775 -25.30012,25.29986c0,13.97299 11.32717,25.30073 25.30012,25.30073c13.97266,0 25.29993,-11.32775 25.29993,-25.30073c0,-13.97211 -11.32727,-25.29986 -25.29993,-25.29986zM961.30066,1592.47054v-3.61483h3.61443v3.61483zM956.23636,1605.46826l-2.55566,-2.55594l2.55566,-2.55551l2.55575,2.55551zM954.2098,1576.69977l2.50053,-2.50604l2.50053,2.50604l-2.50053,2.5056zM941.42218,1608.73464h3.61433v3.61439h-3.61433zM943.22939,1592.51301h-16.26444c-0.99802,0 -1.80712,-0.8085 -1.80712,-1.80654c0,-0.99804 0.8091,-1.80741 1.80712,-1.80741h14.45723v-18.11397c0,-0.99891 0.8091,-1.80741 1.80721,-1.80741c0.99802,0 1.80712,0.8085 1.80712,1.80741v19.92139c0,0.99804 -0.8091,1.80654 -1.80712,1.80654zM926.71928,1576.78907l2.55566,-2.55551l2.55566,2.55551l-2.55566,2.55594zM931.48384,1603.00949l-2.50072,2.50604l-2.50034,-2.50604l2.50034,-2.50648z" id="Path-0"/></defs><desc>Generated with Avocode.</desc><g transform="matrix(1,0,0,1,-913,-1560)"><g><title>Clock</title><use xlink:href="#Path-0" fill="#b88b58" fill-opacity="1"/></g></g></svg>