<svg id="SVGDoc" width="61" height="60" xmlns="http://www.w3.org/2000/svg" version="1.1" xmlns:xlink="http://www.w3.org/1999/xlink" xmlns:avocode="https://avocode.com/" viewBox="0 0 61 60"><defs><path d="M401.54839,1609.05945c0,0 -5.71642,1.14687 -11.51619,2.34014c-3.86581,4.30426 -7.71484,8.59933 -7.71484,8.59933l-8.28753,-14.14283c-0.4693,0.02933 -0.93508,0.07091 -1.41182,0.07091c-0.47655,0 -0.94252,-0.04158 -1.41163,-0.07091l-8.28743,14.14283c0,0 -3.84932,-4.29507 -7.71513,-8.59933c-5.79967,-1.19327 -11.51619,-2.34014 -11.51619,-2.34014l9.01375,-15.38162c-1.45197,-2.90832 -2.28958,-6.16858 -2.28958,-9.62889c0,-12.08328 9.94215,-21.87851 22.20621,-21.87851c12.26406,0 22.20621,9.79523 22.20621,21.87851c0,3.46031 -0.83761,6.72057 -2.28958,9.62889zM382.7466,1613.439c0,0 2.77624,-2.63255 5.38502,-5.16835c3.70092,-1.05319 7.4358,-2.12477 7.4358,-2.12477l-5.23844,-8.93902c-3.02181,3.94138 -7.35626,6.83438 -12.37297,8.05654zM349.66869,1606.14587c0,0 3.73497,1.07158 7.4357,2.12477c2.60878,2.53581 5.38502,5.16835 5.38502,5.16835l4.79078,-8.1756c-5.01671,-1.22216 -9.35135,-4.11516 -12.37297,-8.05654zM372.61801,1565.75986c-9.97086,0 -18.05372,8.09988 -18.05372,18.09034c0,9.99134 8.08287,18.09121 18.05372,18.09121c9.97095,0 18.05382,-8.09988 18.05382,-18.09121c0,-9.99046 -8.08287,-18.09034 -18.05382,-18.09034zM372.61801,1596.50648c-6.98643,0 -12.64992,-5.66387 -12.64992,-12.65059c0,-6.98627 5.66349,-12.64927 12.64992,-12.64927c6.98643,0 12.65001,5.663 12.65001,12.64927c0,6.98671 -5.66359,12.65059 -12.65001,12.65059zM372.61801,1574.82013c-4.99039,0 -9.03578,4.04556 -9.03578,9.03576c0,4.99063 4.04539,9.03663 9.03578,9.03663c4.99039,0 9.03578,-4.046 9.03578,-9.03663c0,-4.9902 -4.04539,-9.03576 -9.03578,-9.03576z" id="Path-0"/></defs><desc>Generated with Avocode.</desc><g transform="matrix(1,0,0,1,-342,-1561)"><g><title>Quality</title><use xlink:href="#Path-0" fill="#b88b58" fill-opacity="1"/></g></g></svg>