<svg xmlns="http://www.w3.org/2000/svg" viewBox="0 0 2928 47" width="2928" height="47">
  <svg viewBox="0 0 48 47" width="48" height="47">
    <path d="M4.293 7.1h39.823v6.637H4.293zM4.167 18.6H43.99v6.637H4.167zM4.293 30.7h39.823v6.637H4.293z" fill="#1a1a1a"/>
  </svg>
  <svg viewBox="0 0 48 47" width="48" height="47" x="48">
    <path d="M4.425 7.06l39.629.469-.078 6.605-39.629-.47zM4.43 18.642h39.31v6.551H4.43zM4.349 30.749l39.629-.469.078 6.605-39.629.469z" fill="#1a1a1a"/>
  </svg>
  <svg viewBox="0 0 48 47" width="48" height="47" x="96">
    <path d="M4.557 7.019l39.435.939-.157 6.572-39.434-.939zM4.693 18.683h38.796v6.466H4.693zM4.405 30.799l39.434-.939.157 6.572-39.434.939z" fill="#1a1a1a"/>
  </svg>
  <svg viewBox="0 0 48 47" width="48" height="47" x="144">
    <path d="M4.69 6.979l39.239 1.408-.234 6.54-39.24-1.408zM4.956 18.725h38.283v6.38H4.956zM4.461 30.848l39.24-1.408.235 6.54-39.24 1.408z" fill="#1a1a1a"/>
  </svg>
  <svg viewBox="0 0 48 47" width="48" height="47" x="192">
    <path d="M4.822 6.938l39.045 1.878-.313 6.507-39.045-1.877zM5.219 18.767h37.769v6.294H5.219zM4.517 30.898l39.046-1.877.313 6.507L4.83 37.405z" fill="#1a1a1a"/>
  </svg>
  <svg viewBox="0 0 48 47" width="48" height="47" x="240">
    <path d="M4.954 6.898l38.851 2.347-.391 6.475-38.851-2.347zM5.482 18.808h37.256v6.209H5.482zM4.573 30.947l38.851-2.346.392 6.475-38.851 2.346z" fill="#1a1a1a"/>
  </svg>
  <svg viewBox="0 0 48 47" width="48" height="47" x="288">
    <path d="M5.086 6.858l38.657 2.816-.469 6.442L4.617 13.3zM5.745 18.85h36.742v6.124H5.745zM4.63 30.997l38.656-2.816.469 6.442-38.656 2.816z" fill="#1a1a1a"/>
  </svg>
  <svg viewBox="0 0 48 47" width="48" height="47" x="336">
    <path d="M5.219 6.817l38.462 3.286-.548 6.41-38.462-3.285zM6.008 18.892h36.229v6.038H6.008zM4.686 31.046l38.462-3.285.547 6.41-38.462 3.285z" fill="#1a1a1a"/>
  </svg>
  <svg viewBox="0 0 48 47" width="48" height="47" x="384">
    <path d="M5.351 6.777l38.268 3.754-.626 6.378-38.268-3.754zM6.272 18.933h35.715v5.953H6.272zM4.742 31.096l38.267-3.755.626 6.378-38.268 3.755z" fill="#1a1a1a"/>
  </svg>
  <svg viewBox="0 0 48 47" width="48" height="47" x="432">
    <path d="M5.483 6.737l38.073 4.223-.704 6.346-38.073-4.224zM6.535 18.975h35.201v5.867H6.535zM4.798 31.145l38.073-4.224.704 6.346-38.073 4.224z" fill="#1a1a1a"/>
  </svg>
  <svg viewBox="0 0 48 47" width="48" height="47" x="480">
    <path d="M5.615 6.696l37.879 4.693-.782 6.313-37.879-4.693zM6.798 19.017h34.688v5.781H6.798zM4.854 31.195l37.879-4.693.782 6.313-37.879 4.693z" fill="#1a1a1a"/>
  </svg>
  <svg viewBox="0 0 48 47" width="48" height="47" x="528">
    <path d="M5.747 6.656l37.685 5.162-.86 6.281-37.685-5.163zM7.061 19.058h34.174v5.696H7.061zM4.91 31.244l37.685-5.162.86 6.28L5.77 37.525z" fill="#1a1a1a"/>
  </svg>
  <svg viewBox="0 0 48 47" width="48" height="47" x="576">
    <path d="M5.88 6.615l37.49 5.632-.939 6.248-37.49-5.631zM7.324 19.1h33.661v5.61H7.324zM4.966 31.294l37.49-5.632.939 6.248-37.49 5.632z" fill="#1a1a1a"/>
  </svg>
  <svg viewBox="0 0 48 47" width="48" height="47" x="624">
    <path d="M6.012 6.575l37.296 6.101-1.017 6.216-37.296-6.101zM7.587 19.142h33.147v5.524H7.587zM5.022 31.343l37.296-6.101 1.017 6.216-37.296 6.101z" fill="#1a1a1a"/>
  </svg>
  <svg viewBox="0 0 48 47" width="48" height="47" x="672">
    <path d="M6.144 6.535l37.101 6.57-1.095 6.183-37.101-6.57zM7.85 19.183h32.634v5.439H7.85zM5.078 31.393l37.102-6.571 1.095 6.184-37.102 6.57z" fill="#1a1a1a"/>
  </svg>
  <svg viewBox="0 0 48 47" width="48" height="47" x="720">
    <path d="M6.276 6.494l36.907 7.04-1.173 6.151-36.907-7.04z" fill="#1a1a1a"/>
    <path d="M8.113 19.225h32.12v5.353H8.113zM5.134 31.442l36.907-7.04 1.174 6.151-36.907 7.04z" fill="#1a1a1a"/>
  </svg>
  <svg viewBox="0 0 48 47" width="48" height="47" x="768">
    <path d="M6.408 6.454l36.713 7.509-1.251 6.119-36.713-7.51z" fill="#1a1a1a"/>
    <path d="M8.376 19.267h31.607v5.267H8.376z" fill="#1a1a1a"/>
    <path d="M5.19 31.491l36.713-7.509 1.251 6.119L6.442 37.61z" fill="#1a1a1a"/>
  </svg>
  <svg viewBox="0 0 48 47" width="48" height="47" x="816">
    <path d="M6.541 6.413l36.518 7.979-1.33 6.086L5.211 12.5z" fill="#1a1a1a"/>
    <path d="M8.639 19.308h31.094v5.182H8.639z" fill="#1a1a1a"/>
    <path d="M5.246 31.541l36.519-7.978 1.329 6.086-36.518 7.978z" fill="#1a1a1a"/>
  </svg>
  <svg viewBox="0 0 48 47" width="48" height="47" x="864">
    <path d="M6.673 6.373l36.324 8.448-1.408 6.054-36.324-8.448z" fill="#1a1a1a"/>
    <path d="M8.902 19.35h30.58v5.097H8.902z" fill="#1a1a1a"/>
    <path d="M5.303 31.59l36.323-8.447 1.408 6.054L6.71 37.644z" fill="#1a1a1a"/>
  </svg>
  <svg viewBox="0 0 48 47" width="48" height="47" x="912">
    <path d="M6.805 6.333l36.13 8.917-1.487 6.021-36.129-8.917z" fill="#1a1a1a"/>
    <path d="M9.165 19.392h30.067v5.011H9.165z" fill="#1a1a1a"/>
    <path d="M5.359 31.64l36.129-8.917 1.486 6.021-36.129 8.917z" fill="#1a1a1a"/>
  </svg>
  <svg viewBox="0 0 48 47" width="48" height="47" x="960">
    <path d="M6.937 6.292l35.935 9.387-1.564 5.989-35.935-9.387z" fill="#1a1a1a"/>
    <path d="M9.428 19.433h29.553v4.926H9.428z" fill="#1a1a1a"/>
    <path d="M5.415 31.689l35.935-9.386 1.564 5.989-35.935 9.386z" fill="#1a1a1a"/>
  </svg>
  <svg viewBox="0 0 48 47" width="48" height="47" x="1008">
    <path d="M7.07 6.252l35.74 9.856-1.642 5.956-35.741-9.855z" fill="#1a1a1a"/>
    <path d="M9.691 19.475h29.04v4.84H9.691z" fill="#1a1a1a"/>
    <path d="M5.471 31.739l35.74-9.856 1.643 5.957-35.741 9.855z" fill="#1a1a1a"/>
  </svg>
  <svg viewBox="0 0 48 47" width="48" height="47" x="1056">
    <path d="M7.202 6.212l35.546 10.325-1.721 5.924L5.481 12.136z" fill="#1a1a1a"/>
    <path d="M9.954 19.517H38.48v4.754H9.954z" fill="#1a1a1a"/>
    <path d="M5.527 31.788l35.546-10.325 1.721 5.924L7.248 37.712z" fill="#1a1a1a"/>
  </svg>
  <svg viewBox="0 0 48 47" width="48" height="47" x="1104">
    <path d="M7.334 6.171l35.352 10.794-1.799 5.892L5.535 12.063z" fill="#1a1a1a"/>
    <path d="M10.218 19.558H38.23v4.669H10.218z" fill="#1a1a1a"/>
    <path d="M5.583 31.838l35.352-10.795 1.799 5.892L7.382 37.73z" fill="#1a1a1a"/>
  </svg>
  <svg viewBox="0 0 48 47" width="48" height="47" x="1152">
    <path d="M7.466 6.131l35.158 11.263-1.878 5.86L5.589 11.99z" fill="#1a1a1a"/>
    <path d="M10.481 19.6H37.98v4.583H10.481z" fill="#1a1a1a"/>
    <path d="M5.639 31.887l35.157-11.263 1.878 5.859L7.516 37.747z" fill="#1a1a1a"/>
  </svg>
  <svg viewBox="0 0 48 47" width="48" height="47" x="1200">
    <path d="M7.598 6.09l34.963 11.733-1.955 5.827L5.643 11.917z" fill="#1a1a1a"/>
    <path d="M10.744 19.642h26.985v4.497H10.744z" fill="#1a1a1a"/>
    <path d="M5.695 31.937l34.963-11.733 1.956 5.827L7.651 37.764z" fill="#1a1a1a"/>
  </svg>
  <svg viewBox="0 0 48 47" width="48" height="47" x="1248">
    <path d="M7.731 6.05l34.768 12.202-2.033 5.795L5.697 11.845z" fill="#1a1a1a"/>
    <path d="M11.007 19.683h26.472v4.412H11.007z" fill="#1a1a1a"/>
    <path d="M5.751 31.986L40.52 19.784l2.033 5.794L7.785 37.781z" fill="#1a1a1a"/>
  </svg>
  <svg viewBox="0 0 48 47" width="48" height="47" x="1296">
    <path d="M7.863 6.01l34.574 12.671-2.112 5.762L5.751 11.772z" fill="#1a1a1a"/>
    <path d="M11.27 19.725h25.958v4.326H11.27z" fill="#1a1a1a"/>
    <path d="M5.807 32.036l34.574-12.672 2.112 5.762L7.919 37.798z" fill="#1a1a1a"/>
  </svg>
  <svg viewBox="0 0 48 47" width="48" height="47" x="1344">
    <path d="M7.995 5.969l34.38 13.141-2.19 5.73-34.38-13.141z" fill="#1a1a1a"/>
    <path d="M11.533 19.767h25.445v4.24H11.533z" fill="#1a1a1a"/>
    <path d="M5.863 32.085l34.38-13.141 2.19 5.73-34.38 13.141z" fill="#1a1a1a"/>
  </svg>
  <svg viewBox="0 0 48 47" width="48" height="47" x="1392">
    <path d="M8.127 5.929l34.186 13.61-2.269 5.697-34.185-13.61z" fill="#1a1a1a"/>
    <path d="M11.796 19.808h24.931v4.155H11.796z" fill="#1a1a1a"/>
    <path d="M5.919 32.135l34.186-13.611 2.268 5.698-34.185 13.61z" fill="#1a1a1a"/>
  </svg>
  <svg viewBox="0 0 48 47" width="48" height="47" x="1440">
    <path d="M8.259 5.888l33.992 14.08-2.347 5.665-33.991-14.08z" fill="#1a1a1a"/>
    <path d="M12.059 19.85h24.418v4.069H12.059z" fill="#1a1a1a"/>
    <path d="M5.976 32.184l33.991-14.079 2.346 5.665L8.322 37.849z" fill="#1a1a1a"/>
  </svg>
  <svg viewBox="0 0 48 47" width="48" height="47" x="1488">
    <path d="M8.392 5.848l33.796 14.549-2.424 5.633L5.967 11.481z" fill="#1a1a1a"/>
    <path d="M12.322 19.892h23.905v3.984H12.322z" fill="#1a1a1a"/>
    <path d="M6.032 32.233l33.796-14.548 2.425 5.632L8.456 37.866z" fill="#1a1a1a"/>
  </svg>
  <svg viewBox="0 0 48 47" width="48" height="47" x="1536">
    <path d="M8.524 5.808l33.602 15.018-2.503 5.6L6.021 11.408z" fill="#1a1a1a"/>
    <path d="M12.585 19.933h23.391v3.899H12.585z" fill="#1a1a1a"/>
    <path d="M6.088 32.283L39.69 17.265l2.503 5.6L8.591 37.883z" fill="#1a1a1a"/>
  </svg>
  <svg viewBox="0 0 48 47" width="48" height="47" x="1584">
    <path d="M8.656 5.767l33.408 15.488-2.581 5.568L6.075 11.335z" fill="#1a1a1a"/>
    <path d="M12.848 19.975h22.878v3.813H12.848z" fill="#1a1a1a"/>
    <path d="M6.144 32.332l33.408-15.487 2.581 5.568L8.725 37.9z" fill="#1a1a1a"/>
  </svg>
  <svg viewBox="0 0 48 47" width="48" height="47" x="1632">
    <path d="M8.788 5.727l33.214 15.957-2.66 5.535L6.129 11.262z" fill="#1a1a1a"/>
    <path d="M13.111 20.017h22.364v3.727H13.111z" fill="#1a1a1a"/>
    <path d="M6.2 32.382l33.213-15.957 2.66 5.535L8.859 37.917z" fill="#1a1a1a"/>
  </svg>
  <svg viewBox="0 0 48 47" width="48" height="47" x="1680">
    <path d="M8.921 5.687L41.94 22.113l-2.738 5.503L6.183 11.19z" fill="#1a1a1a"/>
    <path d="M13.374 20.058h21.851V23.7H13.374z" fill="#1a1a1a"/>
    <path d="M6.256 32.431l33.019-16.426 2.738 5.503-33.02 16.426z" fill="#1a1a1a"/>
  </svg>
  <svg viewBox="0 0 48 47" width="48" height="47" x="1728">
    <path d="M9.053 5.646l32.824 16.896-2.815 5.47L6.237 11.117z" fill="#1a1a1a"/>
    <path d="M13.637 20.1h21.337v3.556H13.637z" fill="#1a1a1a"/>
    <path d="M6.312 32.481l32.825-16.896 2.815 5.471L9.128 37.951z" fill="#1a1a1a"/>
  </svg>
  <svg viewBox="0 0 48 47" width="48" height="47" x="1776">
    <path d="M9.185 5.606l32.63 17.365-2.894 5.438-32.63-17.365z" fill="#1a1a1a"/>
    <path d="M13.9 20.142h20.824v3.47H13.9z" fill="#1a1a1a"/>
    <path d="M6.368 32.53l32.63-17.364 2.894 5.438-32.63 17.364z" fill="#1a1a1a"/>
  </svg>
  <svg viewBox="0 0 48 47" width="48" height="47" x="1824">
    <path d="M9.317 5.565l32.436 17.834-2.972 5.406L6.345 10.971z" fill="#1a1a1a"/>
    <path d="M14.164 20.183h20.31v3.385h-20.31z" fill="#1a1a1a"/>
    <path d="M6.424 32.58L38.86 14.746l2.972 5.405L9.396 37.986z" fill="#1a1a1a"/>
  </svg>
  <svg viewBox="0 0 48 47" width="48" height="47" x="1872">
    <path d="M9.449 5.525l32.242 18.303-3.051 5.374L6.399 10.898z" fill="#1a1a1a"/>
    <path d="M14.427 20.225h19.796v3.299H14.427z" fill="#1a1a1a"/>
    <path d="M6.48 32.629l32.242-18.303 3.05 5.373L9.531 38.003z" fill="#1a1a1a"/>
  </svg>
  <svg viewBox="0 0 48 47" width="48" height="47" x="1920">
    <path d="M9.582 5.485l32.047 18.772-3.129 5.341L6.453 10.826z" fill="#1a1a1a"/>
    <path d="M14.69 20.267h19.283v3.213H14.69z" fill="#1a1a1a"/>
    <path d="M6.536 32.679l32.047-18.773 3.129 5.341L9.665 38.02z" fill="#1a1a1a"/>
  </svg>
  <svg viewBox="0 0 48 47" width="48" height="47" x="1968">
    <path d="M9.714 5.444l31.852 19.242-3.206 5.309L6.507 10.753z" fill="#1a1a1a"/>
    <path d="M14.953 20.308h18.769v3.128H14.953z" fill="#1a1a1a"/>
    <path d="M6.592 32.728l31.853-19.242 3.207 5.309L9.799 38.037z" fill="#1a1a1a"/>
  </svg>
  <svg viewBox="0 0 48 47" width="48" height="47" x="2016">
    <path d="M9.846 5.404l31.658 19.711-3.285 5.276L6.561 10.68z" fill="#1a1a1a"/>
    <path d="M15.216 20.35h18.256v3.042H15.216z" fill="#1a1a1a"/>
    <path d="M6.649 32.778l31.658-19.712 3.285 5.277L9.934 38.054z" fill="#1a1a1a"/>
  </svg>
  <svg viewBox="0 0 48 47" width="48" height="47" x="2064">
    <path d="M9.978 5.364l31.464 20.18-3.363 5.244L6.615 10.607z" fill="#1a1a1a"/>
    <path d="M15.479 20.392h17.742v2.957H15.479z" fill="#1a1a1a"/>
    <path d="M6.705 32.827l31.463-20.181 3.364 5.244-31.464 20.181z" fill="#1a1a1a"/>
  </svg>
  <svg viewBox="0 0 48 47" width="48" height="47" x="2112">
    <path d="M10.111 5.323l31.269 20.65-3.442 5.211L6.669 10.535z" fill="#1a1a1a"/>
    <path d="M15.742 20.433h17.229v2.872H15.742z" fill="#1a1a1a"/>
    <path d="M6.761 32.877l31.269-20.65 3.442 5.211-31.27 20.65z" fill="#1a1a1a"/>
  </svg>
  <svg viewBox="0 0 48 47" width="48" height="47" x="2160">
    <path d="M10.243 5.283l31.075 21.119-3.52 5.179L6.723 10.462z" fill="#1a1a1a"/>
    <path d="M16.005 20.475h16.716v2.786H16.005z" fill="#1a1a1a"/>
    <path d="M6.817 32.926l31.075-21.119 3.519 5.179-31.075 21.119z" fill="#1a1a1a"/>
  </svg>
  <svg viewBox="0 0 48 47" width="48" height="47" x="2208">
    <path d="M10.375 5.242l30.881 21.589-3.598 5.147L6.777 10.389z" fill="#1a1a1a"/>
    <path d="M16.268 20.517H32.47v2.7H16.268z" fill="#1a1a1a"/>
    <path d="M6.873 32.975l30.88-21.588 3.598 5.147-30.88 21.588z" fill="#1a1a1a"/>
  </svg>
  <svg viewBox="0 0 48 47" width="48" height="47" x="2256">
    <path d="M10.507 5.202L41.193 27.26l-3.676 5.114L6.831 10.316z" fill="#1a1a1a"/>
    <path d="M16.531 20.558H32.22v2.615H16.531z" fill="#1a1a1a"/>
    <path d="M6.929 33.025l30.686-22.058 3.676 5.114-30.686 22.058z" fill="#1a1a1a"/>
  </svg>
  <svg viewBox="0 0 48 47" width="48" height="47" x="2304">
    <path d="M10.639 5.162l30.492 22.527-3.754 5.082L6.885 10.243z" fill="#1a1a1a"/>
    <path d="M16.794 20.6h15.175v2.529H16.794z" fill="#1a1a1a"/>
    <path d="M6.985 33.074l30.492-22.527 3.754 5.082-30.492 22.527z" fill="#1a1a1a"/>
  </svg>
  <svg viewBox="0 0 48 47" width="48" height="47" x="2352">
    <path d="M10.772 5.121l30.297 22.997-3.833 5.049L6.939 10.171z" fill="#1a1a1a"/>
    <path d="M17.057 20.642h14.662v2.443H17.057z" fill="#1a1a1a"/>
    <path d="M7.041 33.124l30.297-22.997 3.833 5.05-30.297 22.996z" fill="#1a1a1a"/>
  </svg>
  <svg viewBox="0 0 48 47" width="48" height="47" x="2400">
    <path d="M10.904 5.081l30.103 23.466-3.911 5.017L6.993 10.098z" fill="#1a1a1a"/>
    <path d="M17.32 20.683h14.148v2.358H17.32z" fill="#1a1a1a"/>
    <path d="M7.097 33.173L37.2 9.707l3.911 5.018L11.008 38.19z" fill="#1a1a1a"/>
  </svg>
  <svg viewBox="0 0 48 47" width="48" height="47" x="2448">
    <path d="M11.036 5.04l29.909 23.936-3.989 4.984L7.047 10.025z" fill="#1a1a1a"/>
    <path d="M17.583 20.725h13.635v2.272H17.583z" fill="#1a1a1a"/>
    <path d="M7.153 33.223L37.062 9.288l3.989 4.984-29.909 23.935z" fill="#1a1a1a"/>
  </svg>
  <svg viewBox="0 0 48 47" width="48" height="47" x="2496">
    <path d="M11.168 5l29.714 24.405-4.067 4.952L7.101 9.952z" fill="#1a1a1a"/>
    <path d="M17.846 20.767h13.121v2.186H17.846z" fill="#1a1a1a"/>
    <path d="M7.209 33.272L36.924 8.868l4.067 4.952-29.714 24.404z" fill="#1a1a1a"/>
  </svg>
  <svg viewBox="0 0 48 47" width="48" height="47" x="2544">
    <path d="M11.3 4.96l29.52 24.873-4.145 4.92L7.155 9.879z" fill="#1a1a1a"/>
    <path d="M18.11 20.808h12.607v2.101H18.11z" fill="#1a1a1a"/>
    <path d="M7.265 33.322l29.52-24.874 4.146 4.92-29.52 24.874z" fill="#1a1a1a"/>
  </svg>
  <svg viewBox="0 0 48 47" width="48" height="47" x="2592">
    <path d="M11.433 4.919l29.325 25.343-4.224 4.888L7.209 9.807z" fill="#1a1a1a"/>
    <path d="M18.373 20.85h12.094v2.016H18.373z" fill="#1a1a1a"/>
    <path d="M7.322 33.371L36.647 8.028l4.224 4.887-29.326 25.344z" fill="#1a1a1a"/>
  </svg>
  <svg viewBox="0 0 48 47" width="48" height="47" x="2640">
    <path d="M11.565 4.879l29.131 25.812-4.302 4.855L7.263 9.734z" fill="#1a1a1a"/>
    <path d="M18.636 20.892h11.58v1.93h-11.58z" fill="#1a1a1a"/>
    <path d="M7.378 33.421L36.509 7.608l4.301 4.855-29.13 25.813z" fill="#1a1a1a"/>
  </svg>
  <svg viewBox="0 0 48 47" width="48" height="47" x="2688">
    <path d="M11.697 4.839L40.634 31.12l-4.38 4.823L7.317 9.661z" fill="#1a1a1a"/>
    <path d="M18.899 20.933h11.067v1.845H18.899z" fill="#1a1a1a"/>
    <path d="M7.434 33.47L36.37 7.188l4.38 4.823-28.936 26.282z" fill="#1a1a1a"/>
  </svg>
  <svg viewBox="0 0 48 47" width="48" height="47" x="2736">
    <path d="M11.829 4.798l28.743 26.751-4.459 4.79L7.371 9.588z" fill="#1a1a1a"/>
    <path d="M19.162 20.975h10.553v1.759H19.162z" fill="#1a1a1a"/>
    <path d="M7.49 33.52L36.232 6.769l4.458 4.79L11.948 38.31z" fill="#1a1a1a"/>
  </svg>
  <svg viewBox="0 0 48 47" width="48" height="47" x="2784">
    <path d="M11.962 4.758l28.547 27.22-4.536 4.758L7.425 9.516z" fill="#1a1a1a"/>
    <path d="M19.425 21.017h10.04v1.673h-10.04z" fill="#1a1a1a"/>
    <path d="M7.546 33.569l28.548-27.22 4.536 4.758-28.548 27.22z" fill="#1a1a1a"/>
  </svg>
  <svg viewBox="0 0 48 47" width="48" height="47" x="2832">
    <path d="M12.094 4.717l28.353 27.69-4.615 4.725L7.479 9.443z" fill="#1a1a1a"/>
    <path d="M19.688 21.058h9.526v1.588h-9.526z" fill="#1a1a1a"/>
    <path d="M7.602 33.619l28.353-27.69 4.615 4.725-28.353 27.69z" fill="#1a1a1a"/>
  </svg>
  <svg viewBox="0 0 48 47" width="48" height="47" x="2880">
    <path d="M12.226 4.677l28.159 28.159-4.693 4.693L7.533 9.37z" fill="#1a1a1a"/>
    <path d="M19.951 21.1h9.013v1.502h-9.013z" fill="#1a1a1a"/>
    <path d="M7.658 33.668L35.817 5.509l4.693 4.693-28.159 28.159z" fill="#1a1a1a"/>
  </svg>
</svg>
