<svg id="SVGDoc" width="42" height="42" xmlns="http://www.w3.org/2000/svg" version="1.1" xmlns:xlink="http://www.w3.org/1999/xlink" xmlns:avocode="https://avocode.com/" viewBox="0 0 42 42"><defs><path d="M1497.60857,857.6322c0.83027,0.82251 1.26591,1.80085 1.26591,2.82034c0,1.01161 -0.42744,1.99827 -1.2413,2.84529c-0.35343,0.36989 -0.71516,0.72358 -1.06869,1.06064c-0.51785,0.50121 -1.01109,0.97002 -1.43852,1.4883c-0.0083,0.0162 -0.0247,0.02451 -0.0329,0.04071c-1.2495,1.35698 -2.84433,2.03941 -4.74329,2.03941c-0.16441,0 -0.34523,-0.00832 -0.51785,-0.01663c-2.81963,-0.18079 -5.34334,-1.24142 -7.2341,-2.13747c-4.94871,-2.39311 -9.28097,-5.78863 -12.88147,-10.08939c-2.96764,-3.56843 -4.95701,-6.89873 -6.28872,-10.49167c-0.54264,-1.46379 -1.2496,-3.70019 -1.05228,-6.10117c0.13151,-1.4883 0.73166,-2.77087 1.78385,-3.82363l2.79503,-2.82034c0.0082,-0.00832 0.0082,-0.00832 0.0164,-0.0162c0.82207,-0.78968 1.79205,-1.20903 2.79503,-1.20903c1.00288,0 1.95646,0.41935 2.75383,1.20903c0.53434,0.49333 1.05219,1.01949 1.54543,1.52945c0.24662,0.26308 0.50974,0.52616 0.76456,0.78092l2.24419,2.24471c1.72634,1.72687 1.72634,3.96327 0,5.69014c-0.23022,0.23025 -0.46034,0.46838 -0.69056,0.69863c-0.60825,0.61677 -1.2331,1.25805 -1.90716,1.87483c0.50144,1.1101 1.192,2.20357 2.21958,3.50277c2.12088,2.60672 4.33216,4.62118 6.76546,6.16683c0.23842,0.14839 0.51785,0.28803 0.81387,0.43599c0.20552,0.10681 0.41924,0.21362 0.63295,0.32874l2.59771,-2.59009c0.83027,-0.83039 1.80025,-1.26593 2.81143,-1.26593c1.01929,0 1.98107,0.44386 2.77853,1.27425zM1496.03024,859.18616l-4.52957,-4.53057c-0.0082,-0.00788 -0.0082,-0.00788 -0.0164,-0.0162c-0.25492,-0.27971 -0.67406,-0.60014 -1.1838,-0.60014c-0.51785,0 -0.96178,0.33706 -1.2413,0.61633l-2.81143,2.81246c-0.13971,0.13964 -0.56715,0.56731 -1.2495,0.56731c-0.27122,0 -0.53434,-0.0661 -0.81377,-0.20574c-0.0329,-0.01663 -0.0658,-0.04115 -0.09871,-0.05734c-0.23842,-0.14839 -0.51785,-0.28803 -0.81387,-0.43599c-0.32883,-0.16459 -0.67406,-0.33706 -1.01109,-0.55111c-2.63872,-1.66909 -5.03092,-3.84814 -7.2998,-6.64353l-0.0082,-0.00832c-1.2496,-1.58679 -2.07157,-2.91883 -2.65522,-4.33315c-0.0082,-0.02495 -0.0165,-0.04946 -0.0247,-0.07398c-0.14791,-0.46882 -0.27952,-1.15956 0.42744,-1.86651c0.0083,-0.01663 0.0247,-0.02495 0.0411,-0.04115c0.71526,-0.64128 1.37281,-1.2992 2.06337,-2.00658c0.23842,-0.22981 0.46854,-0.46838 0.70696,-0.70694c0.87137,-0.87153 0.87137,-1.67741 0,-2.54894l-2.24419,-2.24471c-0.26302,-0.2714 -0.52614,-0.53448 -0.78096,-0.79756c-0.50144,-0.51828 -0.97818,-1.00329 -1.47963,-1.47211c-0.0083,-0.00788 -0.0165,-0.0162 -0.0247,-0.02451c-0.26302,-0.26308 -0.68235,-0.57562 -1.2002,-0.57562c-0.41924,0 -0.84667,0.20574 -1.2495,0.58394l-2.80323,2.8037c-0.68226,0.68243 -1.05219,1.47999 -1.1344,2.44213c-0.12331,1.50494 0.15621,3.10005 0.92068,5.14734c1.2413,3.35481 3.11556,6.47938 5.91879,9.8587c3.39508,4.05388 7.48062,7.25242 12.1335,9.50545c1.70164,0.81375 3.97043,1.76758 6.41203,1.92385c0.12321,0.00832 0.25482,0.00832 0.37813,0.00832c1.28231,0 2.26059,-0.41935 3.09086,-1.30752c0.50964,-0.60014 1.05228,-1.13461 1.58653,-1.64414c0.35353,-0.34537 0.68235,-0.65792 1.00298,-1.00329c-0.0082,0.00832 -0.0082,0 0,0c0.83847,-0.87153 0.83847,-1.73519 -0.0082,-2.57389zM1482.46632,836.95265c0.10691,-0.60014 0.67406,-1.00329 1.28241,-0.90436c2.60592,0.44386 4.98161,1.67741 6.86417,3.56011c1.88246,1.88314 3.11556,4.25918 3.55949,6.8659c0.09861,0.60845 -0.30422,1.18408 -0.91248,1.28257c-0.0658,0.00832 -0.12341,0.01663 -0.18911,0.01663c-0.53434,0 -1.00288,-0.3782 -1.09329,-0.921c-0.36993,-2.1541 -1.38111,-4.11122 -2.94294,-5.6735c-1.56193,-1.56228 -3.51839,-2.58177 -5.67217,-2.94378c-0.60835,-0.09849 -1.00288,-0.68243 -0.89607,-1.28257zM1500.31309,847.4198c-0.0658,0.00832 -0.12331,0.01663 -0.18911,0.01663c-0.53434,0 -1.00288,-0.3782 -1.09329,-0.921c-0.64945,-3.83151 -2.4579,-7.3264 -5.23653,-10.10559c-2.77853,-2.77087 -6.27222,-4.58792 -10.10294,-5.23752c-0.60835,-0.10681 -1.01118,-0.67455 -0.91257,-1.28301c0.10691,-0.60014 0.67415,-1.01117 1.2742,-0.90436c4.29115,0.7319 8.19588,2.75468 11.30323,5.86261c3.10736,3.10837 5.12962,7.01385 5.86128,11.30586c0.10681,0.60057 -0.30422,1.1762 -0.90427,1.26637z" id="Path-0"/></defs><desc>Generated with Avocode.</desc><g transform="matrix(1,0,0,1,-1461,-827)"><g><title>Telephone</title><use xlink:href="#Path-0" fill="#ffffff" fill-opacity="1"/></g></g></svg>